<svg xmlns="http://www.w3.org/2000/svg" viewBox="0 0 300 80" role="img" aria-labelledby="logoTitle">
  <title id="logoTitle">CleanPro logo</title>
  <defs>
    <linearGradient id="gradIcon" x1="0" y1="0" x2="1" y2="1">
      <stop offset="0%" stop-color="#0f4fcc"/>
      <stop offset="100%" stop-color="#00c7ff"/>
    </linearGradient>
    <linearGradient id="gradText" x1="0" y1="0" x2="1" y2="0">
      <stop offset="0%" stop-color="#102d5c"/>
      <stop offset="100%" stop-color="#1772e8"/>
    </linearGradient>
  </defs>
  <rect width="300" height="80" rx="20" fill="transparent"/>
  <rect x="16" y="16" width="48" height="48" rx="14" fill="url(#gradIcon)"/>
  <path d="M32 29a4 4 0 0 0-4 4v14a4 4 0 0 0 8 0V37h6a4 4 0 1 0 0-8H32z" fill="#fff"/>
  <path d="M41 40h-1v8h1a2 2 0 1 0 0-4h-1v-2h1a2 2 0 1 0 0-4z" fill="#fff"/>
  <text x="82" y="50" font-family="Inter, Arial, sans-serif" font-size="34" font-weight="800" fill="url(#gradText)">CleanPro</text>
</svg>